#N canvas 533 183 470 308 10;
#X msg 19 16 bang;
#X text 230 79 gregorian;
#X msg 97 43 -bj "23524352.23432";
#X msg 109 18 -bj 1235;
#X msg 31 267 -path /home/jwmatthys/Downloads;
#X floatatom 26 208 8 0 0 0 - - -, f 8;
#X floatatom 100 209 8 0 0 0 - - -, f 8;
#X floatatom 178 210 8 0 0 0 - - -, f 8;
#X msg 159 119 -step 0.1;
#X msg 6 107 0.1;
#X msg 129 78 -b 1974 6 27;
#X msg 266 11 -hel;
#X obj 42 151 swephemer~ 16;
#X text 29 230 long;
#X text 105 228 lat;
#X text 183 230 dist;
#X floatatom 249 209 8 0 0 0 - - -, f 8;
#X text 242 228 julian date;
#X text 233 120 (not used yet);
#X text 143 153 <-- number is celestial body;
#X text 9 89 advance;
#X text 257 43 julian (can be float or;
#X text 263 60 symbol in quotes);
#X text 259 269 path to ephemera datafiles;
#X text 305 10 not working?;
#X msg 355 114 -p 4;
#X connect 0 0 12 0;
#X connect 2 0 12 0;
#X connect 3 0 12 0;
#X connect 4 0 12 0;
#X connect 8 0 12 0;
#X connect 9 0 12 0;
#X connect 10 0 12 0;
#X connect 11 0 12 0;
#X connect 12 0 5 0;
#X connect 12 1 6 0;
#X connect 12 2 7 0;
#X connect 12 3 16 0;
#X connect 25 0 12 0;
